<svg width="16" height="16" viewBox="0 0 16 16" fill="none" xmlns="http://www.w3.org/2000/svg">
<path d="M1.83395 5.08442C2.09595 4.88292 2.4714 4.93132 2.67379 5.19224L2.67583 5.1948C2.67853 5.19817 2.68378 5.20465 2.69159 5.21398C2.7072 5.23265 2.733 5.2627 2.76909 5.30212C2.84131 5.38102 2.95439 5.49713 3.10907 5.63466C3.41868 5.90994 3.89269 6.26901 4.53729 6.58803C5.38343 7.00678 6.53026 7.36003 7.99974 7.36003C9.46921 7.36003 10.616 7.00678 11.4622 6.58803C12.1068 6.26901 12.5808 5.90994 12.8904 5.63466C13.0451 5.49713 13.1582 5.38102 13.2304 5.30212C13.2665 5.2627 13.2923 5.23265 13.3079 5.21398C13.3157 5.20465 13.3209 5.19817 13.3236 5.1948L13.3249 5.19324L13.3254 5.19255C13.5278 4.93162 13.9035 4.88292 14.1655 5.08442C14.4282 5.28644 14.4774 5.66314 14.2753 5.92581L14.2743 5.92714L14.2731 5.92878L14.2697 5.93301L14.2601 5.94521C14.2523 5.95495 14.2417 5.9679 14.2284 5.98379C14.2019 6.01556 14.1643 6.05912 14.1156 6.11235C14.0182 6.21876 13.8759 6.36416 13.6877 6.53145C13.4064 6.7816 13.0212 7.0818 12.5286 7.37372L13.5055 9.28719C13.6562 9.58232 13.5391 9.94372 13.244 10.0944C12.9489 10.2451 12.5875 10.128 12.4368 9.83287L11.4536 7.90727C10.6695 8.22737 9.71946 8.47575 8.59974 8.54235V10.36C8.59974 10.6914 8.33111 10.96 7.99974 10.96C7.66837 10.96 7.39974 10.6914 7.39974 10.36V8.54235C6.28001 8.47575 5.32999 8.22737 4.54584 7.90727L3.56269 9.83287C3.412 10.128 3.0506 10.2451 2.75547 10.0944C2.46034 9.94372 2.34325 9.58232 2.49393 9.28719L3.47089 7.37372C2.97832 7.0818 2.59307 6.7816 2.31172 6.53145C2.12357 6.36416 1.98132 6.21876 1.88392 6.11235C1.83519 6.05912 1.79761 6.01556 1.77105 5.98379C1.75776 5.9679 1.74722 5.95495 1.73941 5.94521L1.72973 5.93301L1.72642 5.92878L1.72515 5.92714L1.72461 5.92643C1.52259 5.66376 1.57128 5.28644 1.83395 5.08442Z" fill="#0C0F1A"/>
</svg>
