<svg width="16" height="16" viewBox="0 0 16 16" fill="none" xmlns="http://www.w3.org/2000/svg">
<path fill-rule="evenodd" clip-rule="evenodd" d="M3.09125 8.33232C3.0085 8.20468 2.93985 8.09217 2.88565 8C2.93985 7.90783 3.0085 7.79532 3.09125 7.66768C3.33263 7.29534 3.69 6.80037 4.15364 6.30768C5.09186 5.31069 6.39426 4.39547 8.00001 4.39547C9.60576 4.39547 10.9081 5.31069 11.8464 6.30768C12.31 6.80037 12.6674 7.29534 12.9088 7.66768C12.9915 7.79532 13.0602 7.90783 13.1144 8C13.0602 8.09217 12.9915 8.20468 12.9088 8.33232C12.6674 8.70466 12.31 9.19963 11.8464 9.69232C10.9081 10.6893 9.60576 11.6045 8.00001 11.6045C6.39426 11.6045 5.09186 10.6893 4.15364 9.69232C3.69 9.19963 3.33263 8.70466 3.09125 8.33232ZM14.3365 7.73227C14.3366 7.73249 14.3367 7.73268 13.8 8C14.3367 8.26732 14.3366 8.26751 14.3365 8.26773L14.3362 8.26824L14.3355 8.26955L14.3336 8.27332L14.3275 8.28536C14.3223 8.29535 14.3151 8.30924 14.3057 8.32677C14.2871 8.36181 14.2602 8.41146 14.2251 8.47361C14.155 8.59784 14.0519 8.77253 13.9168 8.98089C13.6474 9.39647 13.2468 9.95207 12.7218 10.5099C11.6828 11.6141 10.0852 12.8 8.00001 12.8C5.91485 12.8 4.31724 11.6141 3.27819 10.5099C2.7532 9.95207 2.35261 9.39647 2.0832 8.98089C1.94812 8.77253 1.84504 8.59784 1.77489 8.47361C1.7398 8.41146 1.71288 8.36181 1.69427 8.32677C1.68496 8.30924 1.67772 8.29535 1.67256 8.28536L1.66639 8.27332L1.66448 8.26955L1.66381 8.26824L1.66356 8.26773C1.66345 8.26751 1.66335 8.26732 2.20001 8C1.66335 7.73268 1.66345 7.73249 1.66356 7.73227L1.66381 7.73176L1.66448 7.73045L1.66639 7.72668L1.67256 7.71464C1.67772 7.70465 1.68496 7.69076 1.69427 7.67323C1.71288 7.63819 1.7398 7.58854 1.77489 7.52639C1.84504 7.40216 1.94812 7.22747 2.0832 7.01911C2.35261 6.60353 2.7532 6.04793 3.27819 5.49005C4.31724 4.38592 5.91485 3.2 8.00001 3.2C10.0852 3.2 11.6828 4.38592 12.7218 5.49005C13.2468 6.04793 13.6474 6.60353 13.9168 7.01911C14.0519 7.22747 14.155 7.40216 14.2251 7.52639C14.2602 7.58854 14.2871 7.63819 14.3057 7.67323C14.3151 7.69076 14.3223 7.70465 14.3275 7.71464L14.3336 7.72668L14.3355 7.73045L14.3362 7.73176L14.3365 7.73227ZM13.8 8L14.3367 7.73268C14.4211 7.90096 14.4211 8.09904 14.3367 8.26732L13.8 8ZM1.66335 7.73268L2.20001 8L1.66335 8.26732C1.57889 8.09904 1.57889 7.90096 1.66335 7.73268ZM7.01818 8C7.01818 7.4598 7.45776 7.02189 8 7.02189C8.54224 7.02189 8.98182 7.4598 8.98182 8C8.98182 8.5402 8.54224 8.97811 8 8.97811C7.45776 8.97811 7.01818 8.5402 7.01818 8ZM8 5.82642C6.79502 5.82642 5.81818 6.79956 5.81818 8C5.81818 9.20044 6.79502 10.1736 8 10.1736C9.20499 10.1736 10.1818 9.20044 10.1818 8C10.1818 6.79956 9.20499 5.82642 8 5.82642Z" fill="#0C0F1A"/>
</svg>
