<svg width="36" height="30" viewBox="0 0 36 30" fill="none" xmlns="http://www.w3.org/2000/svg">
<path d="M20.2222 30C20.0032 30.001 19.7863 29.9583 19.584 29.8744C19.3818 29.7904 19.1983 29.6669 19.0444 29.5111C18.7323 29.1986 18.557 28.775 18.557 28.3333C18.557 27.8917 18.7323 27.468 19.0444 27.1555L31.2 15L19.0444 2.84444C18.75 2.52849 18.5898 2.11061 18.5974 1.67883C18.605 1.24705 18.7799 0.835082 19.0853 0.52972C19.3906 0.224358 19.8026 0.0494429 20.2344 0.0418246C20.6662 0.0342063 21.0841 0.19448 21.4 0.48888L34.7333 13.8222C35.0454 14.1347 35.2208 14.5583 35.2208 15C35.2208 15.4417 35.0454 15.8653 34.7333 16.1778L21.4 29.5111C21.2461 29.6669 21.0627 29.7904 20.8604 29.8744C20.6582 29.9583 20.4412 30.001 20.2222 30Z" fill="#E6D7FF"/>
<path d="M33.5556 16.6666H2.44444C2.00242 16.6666 1.57849 16.4911 1.26593 16.1785C0.953371 15.8659 0.777777 15.442 0.777777 15C0.777777 14.558 0.953371 14.134 1.26593 13.8215C1.57849 13.5089 2.00242 13.3333 2.44444 13.3333H33.5556C33.9976 13.3333 34.4215 13.5089 34.7341 13.8215C35.0466 14.134 35.2222 14.558 35.2222 15C35.2222 15.442 35.0466 15.8659 34.7341 16.1785C34.4215 16.4911 33.9976 16.6666 33.5556 16.6666Z" fill="#E6D7FF"/>
</svg>
