<svg width="12" height="22" viewBox="0 0 12 22" fill="none" xmlns="http://www.w3.org/2000/svg">
<path d="M11.7067 1.70748L11.7071 1.70711C11.8946 1.51957 12 1.26522 12 1C12 0.734784 11.8946 0.48043 11.7071 0.292893L11.7065 0.292321L11.6985 0.284365L11.6979 0.2838C11.5112 0.101835 11.2607 0 11 0C10.7348 0 10.4804 0.105357 10.2929 0.292893L10.2925 0.293268L0.292893 10.2929C0.105357 10.4804 0 10.7348 0 11C-5.96046e-08 11.2652 0.105357 11.5196 0.292893 11.7071L10.2929 21.7071C10.4804 21.8946 10.7348 22 11 22C11.2652 22 11.5196 21.8946 11.7071 21.7071C11.8946 21.5196 12 21.2652 12 21C12 20.7348 11.8946 20.4804 11.7071 20.2929L2.41421 11L11.7067 1.70748Z" fill="#F5F5F5"/>
</svg>
