<svg width="20" height="20" viewBox="0 0 20 20" fill="none" xmlns="http://www.w3.org/2000/svg">
<path fill-rule="evenodd" clip-rule="evenodd" d="M19.3403 0.663631C19.5398 0.863164 19.6261 1.13308 19.5991 1.39346C19.5912 1.46919 19.5738 1.5441 19.5468 1.61625L13.462 19.0013C13.3401 19.3496 13.0179 19.5882 12.6492 19.6032C12.2805 19.6182 11.94 19.4067 11.7901 19.0695L8.44992 11.554L0.934474 8.21383C0.597261 8.06395 0.385704 7.72342 0.400747 7.35471C0.415789 6.986 0.654383 6.66383 1.00268 6.54192L18.3879 0.457115C18.4582 0.430796 18.5311 0.413578 18.6049 0.405459C18.6594 0.399421 18.7141 0.398424 18.7682 0.402315C18.9767 0.417161 19.1809 0.504266 19.3403 0.663631ZM15.2788 3.45235L3.73997 7.49094L8.93244 9.79871L15.2788 3.45235ZM10.2052 11.0715L16.5516 4.72515L12.513 16.264L10.2052 11.0715Z" fill="white"/>
</svg>
