<svg width="24" height="24" viewBox="0 0 24 24" fill="none" xmlns="http://www.w3.org/2000/svg">
<path d="M21 12C21 16.9706 16.9706 21 12 21C7.02942 21 3 16.9706 3 12C3 7.02942 7.02942 3 12 3C16.9706 3 21 7.02942 21 12Z" fill="#D7F3FF" fill-opacity="0.34"/>
<path fill-rule="evenodd" clip-rule="evenodd" d="M12 2.25C12 2.25 13.9831 2.25 15.7954 3.01651C15.7954 3.01651 17.5452 3.75663 18.8943 5.10571C18.8943 5.10571 20.2434 6.45478 20.9835 8.20463C20.9835 8.20463 21.75 10.0169 21.75 12C21.75 12 21.75 13.9831 20.9835 15.7954C20.9835 15.7954 20.2434 17.5452 18.8943 18.8943C18.8943 18.8943 17.5452 20.2434 15.7954 20.9835C15.7954 20.9835 13.9831 21.75 12 21.75C12 21.75 10.0169 21.75 8.20463 20.9835C8.20463 20.9835 6.45478 20.2434 5.10571 18.8943C5.10571 18.8943 3.75663 17.5452 3.01651 15.7954C3.01651 15.7954 2.25 13.9831 2.25 12C2.25 12 2.25 10.0169 3.01651 8.20463C3.01651 8.20463 3.75663 6.45478 5.10571 5.10571C5.10571 5.10571 6.45478 3.75663 8.20463 3.01651C8.20463 3.01651 10.0169 2.25 12 2.25ZM12 3.75C12 3.75 10.321 3.75 8.78896 4.39802C8.78896 4.39802 7.30857 5.02417 6.16637 6.16637C6.16637 6.16637 5.02417 7.30857 4.39802 8.78896C4.39802 8.78896 3.75 10.321 3.75 12C3.75 12 3.75 13.679 4.39802 15.211C4.39802 15.211 5.02417 16.6914 6.16637 17.8336C6.16637 17.8336 7.30857 18.9758 8.78896 19.602C8.78896 19.602 10.321 20.25 12 20.25C12 20.25 13.679 20.25 15.211 19.602C15.211 19.602 16.6914 18.9758 17.8336 17.8336C17.8336 17.8336 18.9758 16.6914 19.602 15.211C19.602 15.211 20.25 13.6789 20.25 12C20.25 12 20.25 10.3211 19.602 8.78896C19.602 8.78896 18.9758 7.30857 17.8336 6.16637C17.8336 6.16637 16.6914 5.02417 15.211 4.39802C15.211 4.39802 13.679 3.75 12 3.75Z" fill="#F5F5F5"/>
<path d="M9.75 12C9.75 12.6213 9.24628 13.125 8.625 13.125C8.00372 13.125 7.5 12.6213 7.5 12C7.5 11.3787 8.00372 10.875 8.625 10.875C9.24628 10.875 9.75 11.3787 9.75 12Z" fill="#F5F5F5"/>
<path d="M16.5 12C16.5 12.6213 15.9963 13.125 15.375 13.125C14.7537 13.125 14.25 12.6213 14.25 12C14.25 11.3787 14.7537 10.875 15.375 10.875C15.9963 10.875 16.5 11.3787 16.5 12Z" fill="#F5F5F5"/>
<path d="M9.93055 15.1252C9.80758 15.0436 9.66324 15 9.51562 15L9.51143 15C9.26169 15.0014 9.02902 15.127 8.89086 15.3351C8.80919 15.458 8.76562 15.6024 8.76562 15.75L8.76564 15.7542C8.76703 16.0039 8.89265 16.2366 9.1007 16.3748L9.10102 16.375C10.4185 17.2498 12 17.2498 12 17.2498C13.5817 17.2498 14.8993 16.3748 14.8993 16.3748C15.1086 16.2358 15.2344 16.0012 15.2344 15.75L15.2344 15.7446C15.2333 15.5988 15.1898 15.4565 15.1091 15.3351C14.9702 15.1258 14.7356 15 14.4844 15L14.479 15C14.3332 15.0011 14.1909 15.0446 14.0694 15.1252C13.129 15.7498 12 15.7498 12 15.7498C10.8711 15.7498 9.93055 15.1252 9.93055 15.1252Z" fill="#F5F5F5"/>
<path d="M13.591 8.34099C14.25 7.68198 14.25 6.75 14.25 6.75C14.25 6.33579 13.9142 6 13.5 6C13.0858 6 12.75 6.33579 12.75 6.75C12.75 7.06066 12.5303 7.28033 12.5303 7.28033C12.3107 7.5 12 7.5 12 7.5C11.6893 7.5 11.4697 7.28033 11.4697 7.28033C11.25 7.06066 11.25 6.75 11.25 6.75C11.25 6.37953 11.4122 5.77137 11.4122 5.77137C11.7465 4.51752 12.5854 3.46878 12.5854 3.46878L12.5857 3.46852C12.692 3.33554 12.75 3.1703 12.75 3L12.75 2.9946C12.7484 2.76866 12.645 2.5555 12.4685 2.41435C12.3355 2.30796 12.1703 2.25 12 2.25L11.9946 2.25002C11.7687 2.25165 11.5555 2.35504 11.4143 2.53148C10.3784 3.82639 9.96282 5.38488 9.96282 5.38488C9.75 6.18297 9.75 6.75 9.75 6.75C9.75 7.68198 10.409 8.34099 10.409 8.34099C11.068 9 12 9 12 9C12.932 9 13.591 8.34099 13.591 8.34099Z" fill="#F5F5F5"/>
</svg>
