<svg width="24" height="24" viewBox="0 0 24 24" fill="none" xmlns="http://www.w3.org/2000/svg">
<path d="M2.25 9H21.75L12 3L2.25 9Z" fill="black" fill-opacity="0.1"/>
<path fill-rule="evenodd" clip-rule="evenodd" d="M11.6069 2.36126C11.848 2.21291 12.152 2.21291 12.3931 2.36126L22.1431 8.36126C22.3649 8.49776 22.5 8.73955 22.5 9C22.5 9.41421 22.1642 9.75 21.75 9.75H2.25001C1.98957 9.75 1.74777 9.61488 1.61127 9.39307C1.39418 9.0403 1.50417 8.57834 1.85694 8.36126L11.6069 2.36126ZM4.89979 8.25L12 3.88063L19.1002 8.25H4.89979Z" fill="white"/>
<path d="M4.5 9V16.5C4.5 16.9142 4.83579 17.25 5.25 17.25C5.66421 17.25 6 16.9142 6 16.5V9C6 8.58579 5.66421 8.25 5.25 8.25C4.83579 8.25 4.5 8.58579 4.5 9Z" fill="white"/>
<path d="M9 9V16.5C9 16.9142 9.33579 17.25 9.75 17.25C10.1642 17.25 10.5 16.9142 10.5 16.5V9C10.5 8.58579 10.1642 8.25 9.75 8.25C9.33579 8.25 9 8.58579 9 9Z" fill="white"/>
<path d="M13.5 9V16.5C13.5 16.9142 13.8358 17.25 14.25 17.25C14.6642 17.25 15 16.9142 15 16.5V9C15 8.58579 14.6642 8.25 14.25 8.25C13.8358 8.25 13.5 8.58579 13.5 9Z" fill="white"/>
<path d="M18 9V16.5C18 16.9142 18.3358 17.25 18.75 17.25C19.1642 17.25 19.5 16.9142 19.5 16.5V9C19.5 8.58579 19.1642 8.25 18.75 8.25C18.3358 8.25 18 8.58579 18 9Z" fill="white"/>
<path d="M3 17.25H21C21.4142 17.25 21.75 16.9142 21.75 16.5C21.75 16.0858 21.4142 15.75 21 15.75H3C2.58579 15.75 2.25 16.0858 2.25 16.5C2.25 16.9142 2.58579 17.25 3 17.25Z" fill="white"/>
<path d="M1.5 20.25H22.5C22.9142 20.25 23.25 19.9142 23.25 19.5C23.25 19.0858 22.9142 18.75 22.5 18.75H1.5C1.08579 18.75 0.75 19.0858 0.75 19.5C0.75 19.9142 1.08579 20.25 1.5 20.25Z" fill="white"/>
</svg>
