<svg width="27" height="26" viewBox="0 0 27 26" fill="none" xmlns="http://www.w3.org/2000/svg">
<path d="M9.6253 7.53041L9.62619 7.52969L9.63032 7.52635C9.86421 7.33647 10 7.05126 10 6.75C10 6.52228 9.9223 6.30138 9.77971 6.12383L9.77638 6.1197C9.61037 5.91523 9.3704 5.7845 9.10858 5.75591L9.10129 5.75514C9.06764 5.75172 9.03385 5.75 9.00002 5.75C8.77231 5.75 8.55141 5.82772 8.37386 5.97031C6.77574 7.25376 5.88878 9.1016 5.88878 9.1016C5.00181 10.9494 5.00002 12.9991 5.00002 12.9991C5.00625 16.5183 3.44192 19.6676 3.44192 19.6676C3.37326 19.8059 3.33752 19.9581 3.33752 20.1125L3.33766 20.1287C3.34371 20.5025 3.55781 20.8418 3.89267 21.0081C4.03091 21.0768 4.18317 21.1125 4.33752 21.1125L4.34377 21.1125C4.45004 21.1118 4.55552 21.0942 4.65625 21.0603C4.90764 20.9758 5.11514 20.7949 5.23313 20.5574C5.23365 20.5563 5.23435 20.5549 5.23435 20.5549C7.00708 16.9846 7.00002 13.0009 7.00002 13.0009C7.00142 11.4054 7.69182 9.96706 7.69182 9.96706C8.38198 8.52923 9.6253 7.53041 9.6253 7.53041Z" fill="#1C1C1C"/>
<path d="M10.1267 24.1378C10.1261 24.1389 10.1255 24.1399 10.1255 24.1399C10.0432 24.2883 10 24.4553 10 24.625L10.0001 24.6354C10.001 24.7251 10.014 24.8142 10.0387 24.9004C10.1117 25.1553 10.283 25.3708 10.5149 25.4995C10.6633 25.5818 10.8303 25.625 11 25.625C11.0242 25.625 11.0484 25.6241 11.0725 25.6224C11.4092 25.5979 11.7107 25.4052 11.8745 25.1101C15.0079 19.4607 15 13 15 13L15 12.9987C14.9996 12.7334 14.8939 12.4792 14.7062 12.292C14.5187 12.105 14.2648 12 14 12L13.9987 12C13.4469 12.0007 13 12.4482 13 13L13 13.0013C13.0079 18.9424 10.1267 24.1378 10.1267 24.1378Z" fill="#1C1C1C"/>
<path d="M17 13.002C17.0121 19.0392 14.4333 24.4979 14.4333 24.4979C14.3702 24.6314 14.3375 24.7773 14.3375 24.925C14.3375 24.937 14.3377 24.9489 14.3381 24.9609C14.3515 25.3345 14.5723 25.6695 14.9104 25.8292C15.0439 25.8923 15.1898 25.925 15.3375 25.925H15.3386C15.4532 25.9249 15.5669 25.9051 15.6748 25.8664C15.9245 25.7769 16.1284 25.592 16.2417 25.3521C19.013 19.4859 19 12.998 19 12.998C19 10.9289 17.5355 9.46447 17.5355 9.46447C16.0711 8 14 8 14 8C11.9289 8 10.4645 9.46447 10.4645 9.46447C9 10.9289 9 13 9 13C9 13.5523 9.44771 14 10 14C10.2652 14 10.5196 13.8946 10.7071 13.7071C10.8946 13.5196 11 13.2652 11 13C11 11.7574 11.8787 10.8787 11.8787 10.8787C12.7574 10 14 10 14 10C15.2426 10 16.1213 10.8787 16.1213 10.8787C17 11.7574 17 13.002 17 13.002Z" fill="#1C1C1C"/>
<path d="M1 13.0026C1.00495 14.8881 0.370766 16.6636 0.370766 16.6636C0.332209 16.7716 0.3125 16.8854 0.3125 17C0.3125 17.0113 0.312692 17.0226 0.313075 17.0339C0.326983 17.4439 0.589843 17.8038 0.976141 17.9417C1.08409 17.9803 1.19787 18 1.3125 18L1.31554 18C1.46257 17.9995 1.60769 17.9667 1.74056 17.9037C1.98025 17.7902 2.16503 17.5861 2.25423 17.3364C3.00586 15.232 3 12.9974 3 12.9974C3 10.812 3.83733 8.79048 3.83733 8.79048C4.67465 6.769 6.22183 5.22182 6.22183 5.22182C7.769 3.67465 9.79048 2.83733 9.79048 2.83733C11.812 2 14 2 14 2C16.188 2 18.2095 2.83732 18.2095 2.83732C20.231 3.67465 21.7782 5.22183 21.7782 5.22183C23.3253 6.769 24.1627 8.79048 24.1627 8.79048C25 10.812 25 13 25 13C24.9983 16.436 24.3433 19.8094 24.3433 19.8094C24.3311 19.8722 24.325 19.936 24.325 20C24.325 20.029 24.3263 20.058 24.3288 20.0869C24.3676 20.5315 24.6963 20.8966 25.1344 20.9817C25.1972 20.9939 25.261 21 25.325 21C25.354 21 25.383 20.9987 25.4119 20.9962C25.8565 20.9574 26.2216 20.6287 26.3067 20.1906C26.9982 16.6288 27 13 27 13C27 10.4141 26.0104 8.02512 26.0104 8.02512C25.0209 5.63609 23.1924 3.80761 23.1924 3.80761C21.3639 1.97913 18.9749 0.989566 18.9749 0.989566C16.5859 -2.38419e-07 14 0 14 0C11.4141 0 9.02512 0.989566 9.02512 0.989566C6.63609 1.97913 4.80761 3.80761 4.80761 3.80761C2.97913 5.63609 1.98957 8.02512 1.98957 8.02512C1 10.4141 1 13.0026 1 13.0026Z" fill="#1C1C1C"/>
<path d="M8.62045 16.7989C8.00088 19.8169 6.46975 22.4905 6.46975 22.4905C6.38311 22.6418 6.33752 22.8132 6.33752 22.9875C6.33752 23.0071 6.3381 23.0268 6.33926 23.0464C6.35914 23.3833 6.54766 23.6875 6.84056 23.8553C6.99186 23.9419 7.16318 23.9875 7.33752 23.9875L7.35904 23.9873C7.44038 23.9855 7.52121 23.9738 7.59973 23.9525C7.85567 23.883 8.0735 23.7146 8.2053 23.4845C9.89545 20.5332 10.5795 17.2017 10.5795 17.2017C10.5931 17.1355 10.6 17.0676 10.6 17C10.6 16.9746 10.5991 16.9492 10.5971 16.9238C10.5631 16.4788 10.2383 16.1102 9.80112 16.0204C9.73495 16.0068 9.66758 16 9.60003 16C9.58625 16 9.57248 16.0003 9.55872 16.0009C9.37723 16.0084 9.20121 16.0651 9.04956 16.1651C8.82814 16.3111 8.67379 16.5391 8.62045 16.7989Z" fill="#1C1C1C"/>
<path d="M20.7578 16.8756C20.7527 16.9166 20.75 16.9587 20.75 17C20.75 17.0197 20.7506 17.0393 20.7517 17.059C20.7802 17.5402 21.1479 17.9327 21.6263 17.9923C21.6674 17.9974 21.7087 18 21.75 18C21.7697 18 21.7893 17.9994 21.809 17.9983C22.2902 17.9698 22.6827 17.6021 22.7423 17.1237C22.9982 15.0702 23 13.0009 23 13.0009C23 11.2098 22.3149 9.55585 22.3149 9.55585C21.6298 7.90191 20.364 6.63604 20.364 6.63604C19.0981 5.37017 17.4442 4.68508 17.4442 4.68508C15.7902 4 14 4 14 4C13.4357 4.00293 12.8807 4.06965 12.8807 4.06965C12.3782 4.13005 12 4.55637 12 5.0625L12 5.06917C12.0003 5.10683 12.0027 5.14445 12.0071 5.18184C12.0675 5.68435 12.4939 6.0625 13 6.0625L13.0067 6.06248C13.0443 6.06223 13.0819 6.05985 13.1193 6.05535C13.5607 6.00231 14 6 14 6C16.8995 6 18.9497 8.05025 18.9497 8.05025C21 10.1005 21 12.9991 21 12.9991C20.9983 14.9449 20.7578 16.8756 20.7578 16.8756Z" fill="#1C1C1C"/>
<path d="M21.9566 21.2464L21.961 21.2285C21.9786 21.1536 21.9875 21.0769 21.9875 21C21.9875 20.8201 21.9389 20.6435 21.847 20.4889C21.8398 20.4767 21.8322 20.4647 21.8245 20.4528C21.6874 20.2431 21.4766 20.0926 21.2339 20.0308L21.216 20.0265C21.1411 20.0089 21.0644 20 20.9875 20C20.8076 20 20.631 20.0485 20.4764 20.1405C20.4642 20.1477 20.4521 20.1552 20.4403 20.163C20.2306 20.3001 20.08 20.5108 20.0183 20.7536C19.7326 21.8773 19.4013 22.8713 19.4013 22.8713C19.3673 22.9732 19.35 23.08 19.35 23.1875C19.35 23.2059 19.3505 23.2243 19.3515 23.2427C19.3741 23.6523 19.6446 24.0065 20.0337 24.1362C20.1357 24.1702 20.2425 24.1875 20.35 24.1875C20.3684 24.1875 20.3868 24.187 20.4052 24.186C20.8147 24.1633 21.1689 23.8929 21.2987 23.5037C21.653 22.4408 21.9566 21.2464 21.9566 21.2464Z" fill="#1C1C1C"/>
</svg>
