<svg width="32" height="32" viewBox="0 0 32 32" fill="none" xmlns="http://www.w3.org/2000/svg">
<path fill-rule="evenodd" clip-rule="evenodd" d="M28.2693 6.27909C28.2693 6.27909 28.4594 5.73605 28.3317 5.17484C28.3317 5.17484 28.2037 4.61229 27.7958 4.20434C27.7958 4.20434 27.3878 3.79638 26.8253 3.66839C26.8253 3.66839 26.2627 3.5404 25.7184 3.73169L4.56042 11.0551C4.56042 11.0551 3.91026 11.2778 3.54173 11.8406C3.54173 11.8406 3.20519 12.3545 3.21738 12.979C3.21738 12.979 3.22954 13.6016 3.58397 14.1031C3.58397 14.1031 3.97111 14.6508 4.6282 14.8551L14.1927 17.8057L14.1986 17.8075L17.1443 27.3696C17.1443 27.3696 17.3493 28.029 17.8971 28.4162C17.8971 28.4162 18.3985 28.7706 19.0211 28.7827C19.0211 28.7827 19.6456 28.7949 20.1595 28.4584C20.1595 28.4584 20.7223 28.0899 20.9461 27.4366L28.2693 6.27909ZM19.0539 26.7886L26.38 5.62303L26.3816 5.61855L5.2146 12.9451L5.22181 12.9452L14.7658 15.8895C14.7658 15.8895 15.2474 16.0226 15.6052 16.3736C15.6052 16.3736 15.9715 16.733 16.1119 17.2266L19.0557 26.7807L19.0539 26.7886Z" fill="#1C1C1C"/>
</svg>
