<svg width="112" height="112" viewBox="0 0 112 112" fill="none" xmlns="http://www.w3.org/2000/svg">
<path fill-rule="evenodd" clip-rule="evenodd" d="M56 10.5C56 10.5 65.2546 10.5 73.7117 14.0771C73.7117 14.0771 81.8777 17.531 88.1734 23.8266C88.1734 23.8266 94.4691 30.1223 97.923 38.2883C97.923 38.2883 101.5 46.7454 101.5 56C101.5 56 101.5 65.2546 97.923 73.7117C97.923 73.7117 94.4691 81.8777 88.1734 88.1734C88.1734 88.1734 81.8777 94.4691 73.7117 97.923C73.7117 97.923 65.2546 101.5 56 101.5C56 101.5 46.7454 101.5 38.2883 97.923C38.2883 97.923 30.1223 94.4691 23.8266 88.1734C23.8266 88.1734 17.531 81.8777 14.0771 73.7117C14.0771 73.7117 10.5 65.2546 10.5 56C10.5 56 10.5 46.7454 14.0771 38.2883C14.0771 38.2883 17.531 30.1223 23.8266 23.8266C23.8266 23.8266 30.1223 17.531 38.2883 14.0771C38.2883 14.0771 46.7454 10.5 56 10.5ZM56 17.5C56 17.5 48.1649 17.5 41.0151 20.5241C41.0151 20.5241 34.1067 23.4461 28.7764 28.7764C28.7764 28.7764 23.4461 34.1066 20.5241 41.0151C20.5241 41.0151 17.5 48.1649 17.5 56C17.5 56 17.5 63.8351 20.5241 70.9849C20.5241 70.9849 23.4461 77.8933 28.7764 83.2236C28.7764 83.2236 34.1067 88.5539 41.0151 91.4759C41.0151 91.4759 48.1649 94.5 56 94.5C56 94.5 63.8351 94.5 70.9849 91.4759C70.9849 91.4759 77.8933 88.5539 83.2236 83.2236C83.2236 83.2236 88.5539 77.8933 91.4759 70.9849C91.4759 70.9849 94.5 63.8351 94.5 56C94.5 56 94.5 48.1649 91.4759 41.0151C91.4759 41.0151 88.5539 34.1066 83.2236 28.7764C83.2236 28.7764 77.8933 23.4461 70.9849 20.5241C70.9849 20.5241 63.8351 17.5 56 17.5Z" fill="#FFD7FB"/>
<path d="M82.9736 44.4762C83.6299 43.8198 84 42.9283 84 42C84 41.0717 83.6313 40.1815 82.9749 39.5251L82.9447 39.4953C82.2911 38.8584 81.4126 38.5 80.5 38.5L80.4806 38.5001C79.5591 38.5051 78.6768 38.8735 78.0251 39.5251L64.0251 53.5251C63.3687 54.1815 63 55.0717 63 56C63 56.0561 63.0013 56.1121 63.004 56.1681C63.0458 57.0372 63.4099 57.8596 64.0251 58.4749C64.6815 59.1313 65.5717 59.5 66.5 59.5C67.4283 59.5 68.3185 59.1312 68.9749 58.4749L82.9736 44.4762Z" fill="#FFD7FB"/>
<path d="M68.9749 39.5251C68.3185 38.8687 67.4283 38.5 66.5 38.5C65.5717 38.5 64.6815 38.8687 64.0251 39.5251C63.3687 40.1815 63 41.0717 63 42C63 42.9283 63.3687 43.8185 64.0251 44.4749L78.0251 58.4749C78.6815 59.1313 79.5717 59.5 80.5 59.5C80.5604 59.5 80.6208 59.4984 80.6811 59.4953C81.5456 59.4505 82.3628 59.087 82.9749 58.4749C83.6313 57.8185 84 56.9283 84 56C84 55.0717 83.6313 54.1815 82.9749 53.5251L68.9749 39.5251Z" fill="#FFD7FB"/>
<path d="M47.9736 44.4762C48.6299 43.8198 49 42.9283 49 42C49 41.0717 48.6313 40.1815 47.9749 39.5251L47.9447 39.4953C47.2911 38.8584 46.4126 38.5 45.5 38.5L45.4806 38.5001C44.5591 38.5051 43.6768 38.8735 43.0251 39.5251L29.0251 53.5251C28.3687 54.1815 28 55.0717 28 56C28 56.0561 28.0013 56.1121 28.004 56.1681C28.0458 57.0372 28.4099 57.8596 29.0251 58.4749C29.6815 59.1313 30.5717 59.5 31.5 59.5C32.4283 59.5 33.3185 59.1312 33.9749 58.4749L47.9736 44.4762Z" fill="#FFD7FB"/>
<path d="M33.9749 39.5251C33.3185 38.8687 32.4283 38.5 31.5 38.5C30.5717 38.5 29.6815 38.8687 29.0251 39.5251C28.3687 40.1815 28 41.0717 28 42C28 42.9283 28.3687 43.8185 29.0251 44.4749L43.0251 58.4749C43.6815 59.1313 44.5717 59.5 45.5 59.5C45.5604 59.5 45.6208 59.4984 45.6811 59.4953C46.5456 59.4505 47.3628 59.087 47.9749 58.4749C48.6312 57.8185 49 56.9283 49 56C49 55.0717 48.6312 54.1815 47.9749 53.5251L33.9749 39.5251Z" fill="#FFD7FB"/>
<path d="M61.25 78.75C61.25 81.6493 58.8993 84 56 84C53.1007 84 50.75 81.6493 50.75 78.75C50.75 75.8507 53.1007 73.5 56 73.5C58.8993 73.5 61.25 75.8507 61.25 78.75Z" fill="#FFD7FB"/>
</svg>
