<svg width="24" height="24" viewBox="0 0 24 24" fill="none" xmlns="http://www.w3.org/2000/svg">
<path d="M19 7.25H18.75V5C18.7474 4.53668 18.5622 4.09309 18.2345 3.76546C17.9069 3.43784 17.4633 3.25263 17 3.25C16.9207 3.23555 16.8393 3.23555 16.76 3.25L4.86 7.25H4.75H4.59L4.42 7.31H4.28L4.12 7.4L4 7.57L3.86 7.69L3.75 7.79L3.63 7.94C3.598 7.9687 3.57097 8.00249 3.55 8.04C3.51288 8.09782 3.47948 8.15794 3.45 8.22L3.39 8.33C3.36216 8.40182 3.33878 8.4753 3.32 8.55C3.3245 8.58653 3.3245 8.62347 3.32 8.66C3.30967 8.7731 3.30967 8.8869 3.32 9V19C3.3221 19.4515 3.49765 19.885 3.81034 20.2107C4.12303 20.5364 4.54895 20.7295 5 20.75H19C19.4633 20.7474 19.9069 20.5622 20.2345 20.2345C20.5622 19.9069 20.7474 19.4633 20.75 19V9C20.7474 8.53668 20.5622 8.09309 20.2345 7.76546C19.9069 7.43784 19.4633 7.25262 19 7.25ZM17.08 4.76C17.1293 4.77817 17.1719 4.81081 17.2022 4.85365C17.2325 4.89649 17.2492 4.94751 17.25 5V7.25H9.62L17.08 4.76ZM19.25 19C19.25 19.0663 19.2237 19.1299 19.1768 19.1768C19.1299 19.2237 19.0663 19.25 19 19.25H5C4.9337 19.25 4.87011 19.2237 4.82322 19.1768C4.77634 19.1299 4.75 19.0663 4.75 19V9C4.75 8.9337 4.77634 8.87011 4.82322 8.82322C4.87011 8.77634 4.9337 8.75 5 8.75H19C19.0663 8.75 19.1299 8.77634 19.1768 8.82322C19.2237 8.87011 19.25 8.9337 19.25 9V19Z" fill="#0C0F1A"/>
<path d="M16.5 15.25C17.1904 15.25 17.75 14.6904 17.75 14C17.75 13.3096 17.1904 12.75 16.5 12.75C15.8096 12.75 15.25 13.3096 15.25 14C15.25 14.6904 15.8096 15.25 16.5 15.25Z" fill="#0C0F1A"/>
</svg>
